<svg width="25" height="19" viewBox="0 0 25 19" fill="none" xmlns="http://www.w3.org/2000/svg">
<path d="M17.5636 18.5L20.8364 11.9545H18.9545C15.7915 11.9545 13.2273 9.39036 13.2273 6.22727C13.2273 3.06419 15.7915 0.5 18.9545 0.5C22.1176 0.5 24.6818 3.06419 24.6818 6.22727V7.09347C24.6818 10.5055 23.8874 13.8706 22.3615 16.9224L21.5727 18.5H17.5636ZM4.83636 18.5L8.10909 11.9545H6.22728C3.06419 11.9545 0.5 9.39036 0.5 6.22727C0.5 3.06419 3.06419 0.5 6.22727 0.5C9.39036 0.5 11.9545 3.06419 11.9545 6.22728V7.09347C11.9545 10.5055 11.1601 13.8706 9.63424 16.9224L8.84545 18.5H4.83636Z" fill="#FB7184"/>
</svg>
