<svg width="19" height="17" viewBox="0 0 19 17" fill="none" xmlns="http://www.w3.org/2000/svg">
<path d="M6.91001 15.5736V14.0712H18.5031V15.5736H6.91001ZM6.91001 9.26369V7.76135H18.5031V9.26369H6.91001ZM6.91001 2.92879V1.42645H18.5031V2.92879H6.91001ZM2.20266 16.5C1.73443 16.5 1.33359 16.3414 1.00016 16.0243C0.666719 15.7071 0.5 15.3106 0.5 14.8349C0.5 14.3592 0.662754 13.9585 0.988263 13.633C1.31377 13.3075 1.7144 13.1448 2.19014 13.1448C2.66588 13.1448 3.06234 13.3115 3.3795 13.6449C3.69666 13.9784 3.85524 14.3792 3.85524 14.8474C3.85524 15.3019 3.69343 15.6909 3.36981 16.0146C3.04617 16.3382 2.65712 16.5 2.20266 16.5ZM2.20266 10.1901C1.73443 10.1901 1.33359 10.0259 1.00016 9.69735C0.666719 9.36882 0.5 8.97387 0.5 8.51252C0.5 8.05116 0.666719 7.65622 1.00016 7.32769C1.33359 6.99916 1.73443 6.8349 2.20266 6.8349C2.65712 6.8349 3.04617 6.99916 3.36981 7.32769C3.69343 7.65622 3.85524 8.05116 3.85524 8.51252C3.85524 8.97387 3.69343 9.36882 3.36981 9.69735C3.04617 10.0259 2.65712 10.1901 2.20266 10.1901ZM2.17762 3.85524C1.71628 3.85524 1.32134 3.69098 0.992795 3.36245C0.664265 3.03392 0.5 2.63898 0.5 2.17762C0.5 1.71627 0.664265 1.32133 0.992795 0.992796C1.32134 0.664266 1.71628 0.5 2.17762 0.5C2.63896 0.5 3.0339 0.664266 3.36245 0.992796C3.69098 1.32133 3.85524 1.71627 3.85524 2.17762C3.85524 2.63898 3.69098 3.03392 3.36245 3.36245C3.0339 3.69098 2.63896 3.85524 2.17762 3.85524Z" fill="#1A0A14"/>
</svg>
