<svg width="12" height="12" viewBox="0 0 12 12" fill="none" xmlns="http://www.w3.org/2000/svg">
<path d="M6.25 0.158936C5.49219 0.158936 4.78125 0.303467 4.11719 0.592529C3.44531 0.881592 2.86133 1.27417 2.36523 1.77026C1.86914 2.26636 1.47656 2.85034 1.1875 3.52222C0.898438 4.18628 0.753906 4.89722 0.753906 5.65503C0.753906 6.41284 0.898438 7.12378 1.1875 7.78784C1.47656 8.45972 1.86914 9.0437 2.36523 9.53979C2.86133 10.0359 3.44531 10.4285 4.11719 10.7175C4.78125 11.0066 5.49219 11.1511 6.25 11.1511C7.00781 11.1511 7.71875 11.0066 8.38281 10.7175C9.05469 10.4285 9.63867 10.0359 10.1348 9.53979C10.6309 9.0437 11.0234 8.45972 11.3125 7.78784C11.6016 7.12378 11.7461 6.41284 11.7461 5.65503C11.7461 4.89722 11.6016 4.18628 11.3125 3.52222C11.0234 2.85034 10.6309 2.26636 10.1348 1.77026C9.63867 1.27417 9.05469 0.881592 8.38281 0.592529C7.71875 0.303467 7.00781 0.158936 6.25 0.158936ZM6.25 10.155C5.63281 10.155 5.05078 10.0378 4.50391 9.80347C3.95703 9.56128 3.48047 9.23706 3.07422 8.83081C2.66797 8.42456 2.34375 7.948 2.10156 7.40112C1.86719 6.85425 1.75 6.27222 1.75 5.65503C1.75 5.03784 1.86719 4.45581 2.10156 3.90894C2.34375 3.36206 2.66797 2.8855 3.07422 2.47925C3.48047 2.073 3.95703 1.74878 4.50391 1.50659C5.05078 1.27222 5.63281 1.15503 6.25 1.15503C6.86719 1.15503 7.44922 1.27222 7.99609 1.50659C8.54297 1.74878 9.01953 2.073 9.42578 2.47925C9.83203 2.8855 10.1562 3.36206 10.3984 3.90894C10.6328 4.45581 10.75 5.03784 10.75 5.65503C10.75 6.27222 10.6328 6.85425 10.3984 7.40112C10.1562 7.948 9.83203 8.42456 9.42578 8.83081C9.01953 9.23706 8.54297 9.56128 7.99609 9.80347C7.44922 10.0378 6.86719 10.155 6.25 10.155ZM8.25391 5.40894H6.75391V2.90112C6.75391 2.76831 6.70508 2.65308 6.60742 2.55542C6.50977 2.45776 6.39062 2.40894 6.25 2.40894C6.10938 2.40894 5.99023 2.45776 5.89258 2.55542C5.79492 2.65308 5.74609 2.76831 5.74609 2.90112V5.90112C5.74609 6.04175 5.79492 6.16089 5.89258 6.25854C5.99023 6.3562 6.10938 6.40503 6.25 6.40503H8.25391C8.38672 6.40503 8.50195 6.3562 8.59961 6.25854C8.69727 6.16089 8.74609 6.04175 8.74609 5.90112C8.74609 5.76831 8.69727 5.65308 8.59961 5.55542C8.50195 5.45776 8.38672 5.40894 8.25391 5.40894Z" fill="#1A0A14"/>
</svg>
