<svg width="22" height="17" viewBox="0 0 22 17" fill="none" xmlns="http://www.w3.org/2000/svg">
<path d="M21.3433 4.36672C21.3433 3.49929 20.6394 2.79602 19.772 2.79602C18.9039 2.79602 18.2 3.49929 18.2 4.36672C18.2 4.79097 18.3686 5.17545 18.6419 5.45763C17.5731 7.671 15.5302 8.44372 13.9469 7.74425C12.5365 7.1205 12.0163 5.33767 11.8402 3.95638C12.4153 3.654 12.8074 3.0517 12.8074 2.35663C12.8073 1.35853 11.9986 0.549805 10.9999 0.549805C10.0018 0.549805 9.19247 1.35853 9.19247 2.35663C9.19247 3.0517 9.58451 3.65396 10.1597 3.95638C9.98354 5.33771 9.46334 7.12054 8.05296 7.74425C6.46961 8.44377 4.42671 7.671 3.3579 5.45763C3.63127 5.17545 3.79984 4.79097 3.79984 4.36672C3.79984 3.49929 3.09592 2.79602 2.22849 2.79602C1.36041 2.79602 0.656494 3.49929 0.656494 4.36672C0.656494 5.16595 1.2537 5.82442 2.02518 5.92418L3.8364 12.5536H18.1634L19.9746 5.92418C20.7467 5.82442 21.3433 5.16595 21.3433 4.36672Z" fill="#1A0A14"/>
<path d="M19.0409 15.3806C19.0409 16.0264 18.5176 16.5498 17.8711 16.5498H4.12873C3.48287 16.5498 2.95952 16.0264 2.95952 15.3806V15.2834C2.95952 14.6369 3.48287 14.1136 4.12873 14.1136H17.8711C18.5176 14.1136 19.0409 14.6369 19.0409 15.2834V15.3806Z" fill="#1A0A14"/>
</svg>
