<svg width="17" height="15" viewBox="0 0 17 15" fill="none" xmlns="http://www.w3.org/2000/svg">
<path d="M15.2042 0.110938H2.04175C1.64185 0.110938 1.29907 0.25376 1.01343 0.539405C0.727783 0.825049 0.584961 1.16782 0.584961 1.56773V6.43511C0.584961 7.55483 0.790625 8.60029 1.20195 9.57148C1.62471 10.5541 2.19885 11.4082 2.92439 12.1337C3.64993 12.8593 4.504 13.4334 5.48662 13.8562C6.45781 14.2675 7.50327 14.4731 8.623 14.4731C9.74272 14.4731 10.7882 14.2675 11.7594 13.8562C12.742 13.4334 13.5961 12.8593 14.3216 12.1337C15.0471 11.4082 15.6213 10.5541 16.044 9.57148C16.4554 8.60029 16.661 7.55483 16.661 6.43511V1.53345C16.661 1.13355 16.5239 0.796485 16.2497 0.522266C15.9755 0.248048 15.627 0.110938 15.2042 0.110938ZM9.39424 9.72573C9.17715 9.94282 8.91721 10.0485 8.61443 10.0428C8.31165 10.0371 8.05742 9.9314 7.85176 9.72573C5.82939 7.77192 4.64111 6.62935 4.28691 6.298C3.93271 5.96665 3.75561 5.6353 3.75561 5.30396C3.75561 4.99546 3.86702 4.73552 4.08982 4.52415C4.31262 4.31277 4.56685 4.20708 4.85249 4.20708C5.16099 4.20708 5.46948 4.35847 5.77798 4.66125C6.08647 4.96404 7.03481 5.88667 8.623 7.42915C10.2455 5.87524 11.2081 4.94976 11.5109 4.65269C11.8136 4.35562 12.1193 4.20708 12.4278 4.20708C12.7363 4.20708 12.9962 4.31562 13.2076 4.53271C13.419 4.7498 13.5247 5.00688 13.5247 5.30396C13.5247 5.6353 13.339 5.97522 12.9677 6.32371C12.5963 6.67219 11.4052 7.8062 9.39424 9.72573Z" fill="#EF3F56"/>
</svg>
