<svg width="17" height="15" viewBox="0 0 17 15" fill="none" xmlns="http://www.w3.org/2000/svg">
<path d="M16.1981 12.245C16.1981 12.7363 16.0267 13.1533 15.6839 13.4961C15.3412 13.8389 14.9298 14.0103 14.45 14.0103C13.9586 14.0103 13.5416 13.8389 13.1988 13.4961C12.8561 13.1533 12.6847 12.7363 12.6847 12.245C12.6847 11.7651 12.8561 11.3538 13.1988 11.011C13.5416 10.6682 13.9586 10.4968 14.45 10.4968C14.9298 10.4968 15.3412 10.6682 15.6839 11.011C16.0267 11.3538 16.1981 11.7651 16.1981 12.245ZM12.8389 0.539258H16.0953V9.46851H12.8389C12.8275 9.46851 12.8218 9.00576 12.8218 8.08027C12.8104 7.14336 12.8046 6.1179 12.8046 5.00388C12.8046 3.88987 12.8104 2.87012 12.8218 1.94463C12.8218 1.00772 12.8275 0.539258 12.8389 0.539258ZM7.90298 6.50352C7.90298 6.50352 8.28003 6.36641 9.03413 6.09219C9.78823 5.81797 10.1653 5.00674 10.1653 3.6585C10.1653 2.87012 10.011 2.26455 9.70254 1.8418C9.39404 1.40762 9.01414 1.09341 8.56282 0.899171C8.1115 0.704932 7.62876 0.590674 7.1146 0.556397C6.60044 0.52212 6.14341 0.504981 5.74351 0.504981C5.48071 0.504981 5.04653 0.504981 4.44097 0.504981C3.82397 0.504981 3.20413 0.504981 2.58142 0.504981C1.95872 0.504981 1.40742 0.504981 0.927539 0.504981C0.459082 0.504981 0.224854 0.504981 0.224854 0.504981V14.0103C0.224854 14.0103 0.464795 14.0103 0.944678 14.0103C1.43599 14.0103 1.99585 14.0103 2.62427 14.0103C3.25269 14.0103 3.86396 14.0103 4.45811 14.0103C5.06367 14.0103 5.48071 14.0103 5.70923 14.0103C6.81753 14.0103 7.71445 13.8731 8.4 13.5989C9.08555 13.3247 9.61685 12.9876 9.9939 12.5877C10.3709 12.1878 10.6223 11.7537 10.748 11.2852C10.8737 10.8282 10.9365 10.4054 10.9365 10.0169C10.9365 9.25142 10.708 8.53445 10.251 7.86604C9.79395 7.19763 9.01128 6.74346 7.90298 6.50352ZM3.61831 3.07578C4.24673 3.07578 4.61235 3.07578 4.71519 3.07578C4.81802 3.07578 4.95513 3.07578 5.12651 3.07578C5.26362 3.07578 5.54641 3.14148 5.97488 3.27288C6.40334 3.40427 6.61758 3.76133 6.61758 4.34404C6.61758 5.04102 6.41191 5.44092 6.00059 5.54375C5.58926 5.64658 5.20078 5.698 4.83516 5.698C4.46953 5.698 4.27815 5.698 4.26101 5.698C4.24387 5.698 4.01821 5.698 3.58403 5.698L3.61831 3.07578ZM5.41787 11.1481C4.99512 11.1481 4.66663 11.1481 4.4324 11.1481C4.19817 11.1481 3.92681 11.1481 3.61831 11.1481V8.18311C3.61831 8.18311 3.7897 8.18311 4.13247 8.18311C4.47524 8.18311 4.91514 8.18311 5.45215 8.18311C5.97773 8.18311 6.41477 8.27166 6.76326 8.44876C7.11174 8.62585 7.28599 9.02861 7.28599 9.65703C7.28599 10.274 7.07461 10.6768 6.65185 10.8653C6.2291 11.0538 5.81777 11.1481 5.41787 11.1481Z" fill="#00A4DE"/>
</svg>
