<svg width="10" height="17" viewBox="0 0 10 17" fill="none" xmlns="http://www.w3.org/2000/svg">
<path d="M8.73145 9.30322L9.17705 6.33823H6.31489V4.40156C6.31489 4.00166 6.43486 3.63318 6.6748 3.29612C6.91475 2.95906 7.35464 2.79053 7.99448 2.79053H9.31416V0.271143C9.31416 0.271143 9.07136 0.23401 8.58577 0.159742C8.10017 0.0854748 7.57744 0.0483398 7.01758 0.0483398C6.43486 0.0483398 5.90356 0.134033 5.42368 0.30542C4.9438 0.488232 4.53533 0.748169 4.19827 1.08523C3.86121 1.42229 3.60127 1.84219 3.41846 2.34492C3.23564 2.84766 3.14424 3.42466 3.14424 4.07593V6.33823H0.504883V9.30322H3.14424V16.5015H6.34917V9.30322H8.73145Z" fill="#3B5998"/>
</svg>
