<svg width="11" height="11" viewBox="0 0 11 11" fill="none" xmlns="http://www.w3.org/2000/svg">
<path d="M8.84497 1.64062C8.59497 1.42188 8.32935 1.22656 8.0481 1.05469C7.76685 0.882812 7.47388 0.738281 7.16919 0.621094C6.8645 0.503906 6.5481 0.414062 6.21997 0.351562C5.89185 0.289062 5.55981 0.257812 5.22388 0.257812C4.89575 0.257812 4.57935 0.285156 4.27466 0.339844C3.96216 0.402344 3.65747 0.486328 3.3606 0.591797C3.06372 0.697266 2.77856 0.828125 2.50513 0.984375C2.23169 1.14844 1.96997 1.33203 1.71997 1.53516C1.6106 1.62109 1.55396 1.73828 1.55005 1.88672C1.54614 2.03516 1.59497 2.16016 1.69653 2.26172C1.78247 2.34766 1.89185 2.39453 2.02466 2.40234C2.15747 2.41016 2.27466 2.37109 2.37622 2.28516C2.79028 1.94922 3.23755 1.69531 3.71802 1.52344C4.19849 1.35156 4.70044 1.26562 5.22388 1.26562C5.76294 1.26562 6.28052 1.36133 6.77661 1.55273C7.27271 1.74414 7.71997 2.01562 8.11841 2.36719L7.14575 3.33984C7.07544 3.41016 7.05981 3.49805 7.09888 3.60352C7.13794 3.70898 7.21216 3.76172 7.32153 3.76172H9.85278C9.94653 3.76172 10.0325 3.72461 10.1106 3.65039C10.1887 3.57617 10.2278 3.48828 10.2278 3.38672V0.867188C10.2278 0.75 10.175 0.671875 10.0696 0.632812C9.96411 0.59375 9.87231 0.613281 9.79419 0.691406L8.84497 1.64062ZM8.72778 8.26172C8.63403 8.17578 8.52661 8.13086 8.40552 8.12695C8.28442 8.12305 8.1731 8.16016 8.07153 8.23828C7.6731 8.55859 7.22974 8.80859 6.74146 8.98828C6.25317 9.16797 5.74731 9.25781 5.22388 9.25781C4.68481 9.25781 4.16724 9.16602 3.67114 8.98242C3.17505 8.79883 2.72778 8.53516 2.32935 8.19141L3.32544 7.18359C3.39575 7.11328 3.41138 7.02539 3.37231 6.91992C3.33325 6.81445 3.25903 6.76172 3.14966 6.76172H0.594971C0.501221 6.76172 0.415283 6.79883 0.337158 6.87305C0.259033 6.94727 0.219971 7.03516 0.219971 7.13672V9.65625C0.219971 9.77344 0.272705 9.85156 0.378174 9.89062C0.483643 9.92969 0.575439 9.91016 0.653564 9.83203L1.60278 8.88281C1.85278 9.10156 2.11841 9.29688 2.39966 9.46875C2.68091 9.63281 2.97388 9.77344 3.27856 9.89062C3.58325 10.0078 3.89966 10.0938 4.22778 10.1484C4.55591 10.2109 4.88794 10.2422 5.22388 10.2422C5.552 10.2422 5.86841 10.2109 6.1731 10.1484C6.4856 10.0938 6.78833 10.0137 7.0813 9.9082C7.37427 9.80273 7.65747 9.67188 7.93091 9.51562C8.19653 9.35938 8.45435 9.18359 8.70435 8.98828C8.81372 8.90234 8.87231 8.78711 8.88013 8.64258C8.88794 8.49805 8.83716 8.37109 8.72778 8.26172Z" fill="#1A0A14"/>
</svg>
