<svg width="17" height="14" viewBox="0 0 17 14" fill="none" xmlns="http://www.w3.org/2000/svg">
<path d="M15.2958 3.98418C15.2958 4.05273 15.2958 4.12415 15.2958 4.19841C15.2958 4.27268 15.2958 4.3498 15.2958 4.42979C15.2958 5.51523 15.0901 6.61211 14.6788 7.72041C14.2789 8.84014 13.679 9.85132 12.8792 10.754C12.0794 11.6566 11.0968 12.3936 9.93135 12.9648C8.76592 13.5361 7.42339 13.8218 5.90376 13.8218C4.96685 13.8218 4.06992 13.6932 3.21299 13.4362C2.35605 13.1791 1.57339 12.822 0.86499 12.365C0.990674 12.3764 1.11921 12.385 1.25061 12.3907C1.38201 12.3964 1.52197 12.3993 1.67051 12.3993C2.43604 12.3993 3.16728 12.2736 3.86426 12.0222C4.56123 11.7708 5.19536 11.4167 5.76665 10.9596C5.0354 10.9482 4.38984 10.7282 3.82998 10.2998C3.27012 9.87131 2.88735 9.32573 2.68169 8.66304C2.7731 8.68589 2.87021 8.70303 2.97305 8.71445C3.07588 8.72588 3.173 8.73159 3.2644 8.73159C3.41294 8.73159 3.56147 8.72302 3.71001 8.70588C3.85854 8.68875 4.00708 8.66304 4.15562 8.62876C3.40151 8.48022 2.7731 8.10032 2.27036 7.48904C1.76763 6.87776 1.51626 6.17222 1.51626 5.37241V5.33813C1.73335 5.46382 1.97043 5.56094 2.22751 5.62949C2.48459 5.69805 2.75024 5.73232 3.02446 5.73232C2.57886 5.44668 2.2218 5.06106 1.9533 4.57546C1.68479 4.08987 1.55054 3.56143 1.55054 2.99014C1.55054 2.68164 1.58767 2.39028 1.66194 2.11607C1.73621 1.84185 1.84761 1.57334 1.99614 1.31055C2.39604 1.81328 2.84736 2.27031 3.3501 2.68164C3.85283 3.09297 4.3927 3.44431 4.9697 3.73567C5.5467 4.02703 6.15513 4.2584 6.79497 4.42979C7.44624 4.6126 8.11465 4.72114 8.80019 4.75542C8.77734 4.62974 8.75735 4.5012 8.74021 4.3698C8.72307 4.2384 8.7145 4.10986 8.7145 3.98418C8.7145 3.07012 9.03442 2.29316 9.67427 1.65332C10.3141 1.01348 11.0911 0.693555 12.0051 0.693555C12.485 0.693555 12.9306 0.787818 13.3419 0.976343C13.7533 1.16487 14.1132 1.41338 14.4217 1.72188C14.7873 1.6419 15.1501 1.53621 15.51 1.40481C15.8699 1.27341 16.2041 1.1106 16.5126 0.916358C16.3869 1.29341 16.1984 1.6419 15.947 1.96182C15.6957 2.28174 15.3929 2.53882 15.0387 2.73306C15.37 2.69878 15.6985 2.63879 16.0241 2.5531C16.3498 2.46741 16.6554 2.36172 16.9411 2.23604C16.724 2.60166 16.4755 2.93015 16.1955 3.22151C15.9156 3.51287 15.6157 3.76709 15.2958 3.98418Z" fill="#1DA1F2"/>
</svg>
