<svg width="18" height="17" viewBox="0 0 18 17" fill="none" xmlns="http://www.w3.org/2000/svg">
<path d="M7.97168 13.8275C8.46299 13.9418 8.72292 14.1246 8.75149 14.376C8.78005 14.6273 8.73721 15.0787 8.62295 15.7299C8.61152 15.8442 8.62295 15.9984 8.65723 16.1927C8.6915 16.3869 8.92573 16.3926 9.35991 16.2098C9.58843 16.1184 9.9769 15.907 10.5253 15.5757C11.0852 15.2443 11.6936 14.8473 12.3506 14.3846C13.0076 13.9218 13.6674 13.4219 14.3301 12.8849C14.9928 12.3479 15.5413 11.8223 15.9754 11.3082C16.581 10.634 17.0323 9.95135 17.3294 9.26009C17.6265 8.56883 17.775 7.85186 17.775 7.10918C17.775 6.16084 17.5522 5.26392 17.1066 4.41841C16.661 3.58433 16.0554 2.85879 15.2899 2.2418C14.5244 1.62481 13.6332 1.1335 12.6163 0.767877C11.5994 0.413677 10.5139 0.236578 9.35991 0.236578C8.20591 0.236578 7.12046 0.413677 6.10356 0.767877C5.08667 1.1335 4.19546 1.62481 3.42993 2.2418C2.6644 2.85879 2.05884 3.58433 1.61323 4.41841C1.16763 5.26392 0.944824 6.16084 0.944824 7.10918C0.944824 7.94327 1.12192 8.73736 1.47612 9.49146C1.83032 10.2456 2.32163 10.9225 2.95005 11.5224C3.57847 12.1222 4.32114 12.6221 5.17808 13.022C6.03501 13.4219 6.96621 13.6904 7.97168 13.8275ZM12.462 5.42959C12.462 5.38389 12.4791 5.34676 12.5134 5.31819C12.5477 5.28963 12.582 5.27535 12.6163 5.27535H14.9985C15.0328 5.27535 15.0642 5.28963 15.0928 5.31819C15.1214 5.34676 15.1356 5.38389 15.1356 5.42959V6.01231C15.1356 6.04659 15.1214 6.07801 15.0928 6.10657C15.0642 6.13514 15.0328 6.14942 14.9985 6.14942H13.3875V6.78355H14.9985C15.0328 6.78355 15.0642 6.79783 15.0928 6.8264C15.1214 6.85496 15.1356 6.88638 15.1356 6.92066V7.53765C15.1356 7.58335 15.1214 7.62049 15.0928 7.64905C15.0642 7.67762 15.0328 7.6919 14.9985 7.6919H13.3875V8.27461H14.9985C15.0328 8.27461 15.0642 8.2889 15.0928 8.31746C15.1214 8.34603 15.1356 8.38316 15.1356 8.42886V9.01158C15.1356 9.04585 15.1214 9.07728 15.0928 9.10584C15.0642 9.1344 15.0328 9.14869 14.9985 9.14869H12.6163C12.582 9.14869 12.5477 9.1344 12.5134 9.10584C12.4791 9.07728 12.462 9.04585 12.462 9.01158V5.42959ZM8.41728 5.46387C8.41728 5.42959 8.43157 5.39532 8.46013 5.36104C8.4887 5.32676 8.52012 5.30962 8.55439 5.30962H9.13711C9.15996 5.30962 9.18567 5.31819 9.21423 5.33533C9.2428 5.35247 9.26851 5.36675 9.29136 5.37818L10.9709 7.65762V5.46387C10.9709 5.42959 10.9852 5.39532 11.0138 5.36104C11.0424 5.32676 11.0738 5.30962 11.1081 5.30962H11.7079C11.7422 5.30962 11.7736 5.32676 11.8022 5.36104C11.8307 5.39532 11.845 5.42959 11.845 5.46387V9.11441C11.845 9.14869 11.8307 9.18296 11.8022 9.21724C11.7736 9.25152 11.7422 9.26866 11.7079 9.26866H11.1081C11.0966 9.26866 11.0738 9.26009 11.0395 9.24295C11.0052 9.22581 10.9824 9.20582 10.9709 9.18296L9.29136 6.92066V9.11441C9.29136 9.14869 9.27422 9.18296 9.23994 9.21724C9.20566 9.25152 9.17139 9.26866 9.13711 9.26866H8.55439C8.52012 9.26866 8.4887 9.25152 8.46013 9.21724C8.43157 9.18296 8.41728 9.14869 8.41728 9.11441V5.46387ZM6.8748 5.42959C6.8748 5.38389 6.88909 5.34676 6.91765 5.31819C6.94622 5.28963 6.97764 5.27535 7.01191 5.27535H7.61177C7.64604 5.27535 7.67747 5.28963 7.70603 5.31819C7.73459 5.34676 7.74888 5.38389 7.74888 5.42959V9.08013C7.74888 9.11441 7.73459 9.14583 7.70603 9.17439C7.67747 9.20296 7.64604 9.21724 7.61177 9.21724H7.06333C7.01763 9.21724 6.98049 9.20296 6.95193 9.17439C6.92336 9.14583 6.90908 9.11441 6.90908 9.08013V5.42959H6.8748ZM3.68701 5.42959C3.68701 5.38389 3.70415 5.34676 3.73843 5.31819C3.7727 5.28963 3.80698 5.27535 3.84126 5.27535H4.42397C4.45825 5.27535 4.49253 5.28963 4.52681 5.31819C4.56108 5.34676 4.57822 5.38389 4.57822 5.42959V8.30889H6.17212C6.21782 8.30889 6.25496 8.32317 6.28352 8.35174C6.31208 8.3803 6.32637 8.41744 6.32637 8.46314V9.04585C6.32637 9.08013 6.31208 9.11155 6.28352 9.14012C6.25496 9.16868 6.21782 9.18296 6.17212 9.18296H3.84126C3.81841 9.18296 3.79841 9.17725 3.78127 9.16583C3.76414 9.1544 3.74414 9.14869 3.72129 9.14869C3.70986 9.13726 3.70129 9.12012 3.69558 9.09727C3.68987 9.07442 3.68701 9.05728 3.68701 9.04585V5.42959Z" fill="#00C300"/>
</svg>
