<svg width="30" height="31" viewBox="0 0 30 31" fill="none" xmlns="http://www.w3.org/2000/svg">
<circle cx="15" cy="15.8926" r="15" fill="url(#paint0_linear_80_83)"/>
<circle cx="15" cy="15.8926" r="13.1711" fill="url(#paint1_linear_80_83)" stroke="white" stroke-width="0.5"/>
<path d="M14.5848 23.2705C13.6248 23.2705 12.7648 23.1439 12.0048 22.8905C11.2581 22.6372 10.6715 22.2905 10.2448 21.8505C9.83146 21.4105 9.62479 20.9105 9.62479 20.3505C9.62479 20.0039 9.71813 19.7372 9.90479 19.5505C10.0915 19.3505 10.3448 19.2505 10.6648 19.2505C10.9715 19.2505 11.2115 19.3172 11.3848 19.4505C11.5581 19.5839 11.6915 19.7572 11.7848 19.9705C11.8915 20.1705 11.9981 20.3905 12.1048 20.6305C12.2115 20.8572 12.3448 21.0772 12.5048 21.2905C12.6648 21.4905 12.8915 21.6572 13.1848 21.7905C13.4781 21.9239 13.8715 21.9905 14.3648 21.9905C15.2448 21.9905 15.9181 21.7572 16.3848 21.2905C16.8648 20.8239 17.1048 20.1505 17.1048 19.2705C17.1048 18.5905 16.9648 18.0172 16.6848 17.5505C16.4181 17.0839 16.0315 16.7439 15.5248 16.5305C15.0181 16.3039 14.4115 16.2172 13.7048 16.2705L12.7448 16.3305C12.6248 16.3439 12.5715 16.2839 12.5848 16.1505L12.7248 15.3305C12.7381 15.2105 12.8115 15.1372 12.9448 15.1105L13.7048 15.0105C14.6515 14.8905 15.3715 14.6172 15.8648 14.1905C16.3581 13.7639 16.6048 13.1905 16.6048 12.4705C16.6048 11.7772 16.3648 11.2239 15.8848 10.8105C15.4048 10.3972 14.7515 10.1905 13.9248 10.1905C13.2181 10.1905 12.6115 10.3705 12.1048 10.7305C11.6115 11.0772 11.2248 11.6105 10.9448 12.3305C10.8915 12.4372 10.8048 12.4705 10.6848 12.4305L10.1648 12.2705C10.0315 12.2439 9.98479 12.1572 10.0248 12.0105C10.2115 10.8239 10.7315 9.88387 11.5848 9.19054C12.4381 8.4972 13.4981 8.15054 14.7648 8.15054C15.6981 8.15054 16.5048 8.30387 17.1848 8.61054C17.8781 8.9172 18.4115 9.35054 18.7848 9.91054C19.1715 10.4705 19.3648 11.1305 19.3648 11.8905C19.3648 12.6505 19.1581 13.3239 18.7448 13.9105C18.3315 14.4839 17.7515 14.9372 17.0048 15.2705C16.2715 15.5905 15.4181 15.7505 14.4448 15.7505V15.2705C16.1915 15.2705 17.5381 15.6105 18.4848 16.2905C19.4448 16.9572 19.9248 17.9239 19.9248 19.1905C19.9248 20.4439 19.4448 21.4372 18.4848 22.1705C17.5381 22.9039 16.2381 23.2705 14.5848 23.2705Z" fill="white"/>
<defs>
<linearGradient id="paint0_linear_80_83" x1="15" y1="0.892578" x2="15" y2="30.8926" gradientUnits="userSpaceOnUse">
<stop stop-color="#824320"/>
<stop offset="1" stop-color="#47230F"/>
</linearGradient>
<linearGradient id="paint1_linear_80_83" x1="15" y1="2.47156" x2="15" y2="29.3137" gradientUnits="userSpaceOnUse">
<stop stop-color="#824320"/>
<stop offset="1" stop-color="#47230F"/>
</linearGradient>
</defs>
</svg>
