<svg width="30" height="31" viewBox="0 0 30 31" fill="none" xmlns="http://www.w3.org/2000/svg">
<circle cx="15" cy="15.8926" r="15" fill="url(#paint0_linear_80_75)"/>
<circle cx="15" cy="15.8926" r="13.1711" fill="url(#paint1_linear_80_75)" stroke="white" stroke-width="0.5"/>
<path d="M19.2707 22.2705C19.3907 22.2839 19.4507 22.3572 19.4507 22.4905V22.8705C19.4507 22.9905 19.384 23.0505 19.2507 23.0505H11.6507C11.5307 23.0505 11.4707 22.9839 11.4707 22.8505V22.4705C11.4707 22.3505 11.5373 22.2839 11.6707 22.2705L13.5107 22.0105C13.7373 21.9572 13.8707 21.9039 13.9107 21.8505C13.9507 21.7972 13.9707 21.6705 13.9707 21.4705V9.87054L15.2507 10.6105L11.1907 11.1905C11.0573 11.2305 10.984 11.1772 10.9707 11.0305L10.8907 10.5505C10.8773 10.4305 10.9307 10.3372 11.0507 10.2705L16.1307 8.19054C16.3307 8.11054 16.4707 8.09054 16.5507 8.13054C16.6307 8.1572 16.6707 8.26387 16.6707 8.45054V21.4505C16.6707 21.6639 16.6907 21.7972 16.7307 21.8505C16.784 21.9039 16.9107 21.9505 17.1107 21.9905L19.2707 22.2705Z" fill="white"/>
<defs>
<linearGradient id="paint0_linear_80_75" x1="15" y1="0.892578" x2="15" y2="30.8926" gradientUnits="userSpaceOnUse">
<stop stop-color="#DECCA3"/>
<stop offset="1" stop-color="#978356"/>
</linearGradient>
<linearGradient id="paint1_linear_80_75" x1="15" y1="2.47156" x2="15" y2="29.3137" gradientUnits="userSpaceOnUse">
<stop stop-color="#DECCA3"/>
<stop offset="1" stop-color="#978356"/>
</linearGradient>
</defs>
</svg>
