<svg width="30" height="31" viewBox="0 0 30 31" fill="none" xmlns="http://www.w3.org/2000/svg">
<circle cx="15" cy="15.8926" r="15" fill="url(#paint0_linear_80_79)"/>
<circle cx="15" cy="15.8926" r="13.1711" fill="url(#paint1_linear_80_79)" stroke="white" stroke-width="0.5"/>
<path d="M9.65925 23.0505C9.52591 23.0505 9.45258 22.9839 9.43925 22.8505L9.39925 22.6505C9.37258 22.5305 9.40591 22.4239 9.49925 22.3305L10.1792 21.6905C10.4859 21.4105 10.7392 21.1705 10.9392 20.9705C11.1392 20.7705 11.3592 20.5439 11.5992 20.2905C12.3726 19.4639 13.0259 18.7372 13.5592 18.1105C14.1059 17.4705 14.5592 16.9039 14.9192 16.4105C15.2926 15.9172 15.5792 15.4705 15.7792 15.0705C15.9926 14.6705 16.1459 14.3039 16.2392 13.9705C16.3326 13.6239 16.3792 13.2772 16.3792 12.9305C16.3792 12.0639 16.1326 11.3905 15.6392 10.9105C15.1459 10.4305 14.4526 10.1905 13.5592 10.1905C12.1192 10.1905 11.0859 10.9039 10.4592 12.3305C10.4192 12.4372 10.3326 12.4705 10.1992 12.4305L9.67925 12.2705C9.55925 12.2439 9.51258 12.1572 9.53925 12.0105C9.75258 10.8105 10.3059 9.87054 11.1992 9.19054C12.0926 8.4972 13.2126 8.15054 14.5592 8.15054C15.9992 8.15054 17.1326 8.52387 17.9592 9.27054C18.7992 10.0172 19.2192 11.0239 19.2192 12.2905C19.2192 12.7572 19.1726 13.1972 19.0792 13.6105C18.9859 14.0105 18.7926 14.4439 18.4992 14.9105C18.2192 15.3639 17.7926 15.9039 17.2192 16.5305C16.6592 17.1572 15.9126 17.9239 14.9792 18.8305C14.0592 19.7372 12.8992 20.8372 11.4992 22.1305L11.7192 20.8505H17.7592C17.9726 20.8505 18.1392 20.8105 18.2592 20.7305C18.3792 20.6505 18.4859 20.5305 18.5792 20.3705L19.3592 18.9105C19.4259 18.7905 19.5259 18.7505 19.6592 18.7905L19.9592 18.8305C20.0926 18.8439 20.1526 18.9172 20.1392 19.0505L19.6792 22.9905C19.6659 23.1239 19.5926 23.1839 19.4592 23.1705L17.9592 23.0505H9.65925Z" fill="white"/>
<defs>
<linearGradient id="paint0_linear_80_79" x1="15" y1="0.892578" x2="15" y2="30.8926" gradientUnits="userSpaceOnUse">
<stop stop-color="#C4C4C4"/>
<stop offset="1" stop-color="#878787"/>
</linearGradient>
<linearGradient id="paint1_linear_80_79" x1="15" y1="2.47156" x2="15" y2="29.3137" gradientUnits="userSpaceOnUse">
<stop stop-color="#C4C4C4"/>
<stop offset="1" stop-color="#878787"/>
</linearGradient>
</defs>
</svg>
