<svg width="140" height="30" viewBox="0 0 140 30" fill="none" xmlns="http://www.w3.org/2000/svg">
<path d="M13.5113 0.267352H0V13.7786H13.5113V0.267352Z" fill="white"/>
<path d="M13.5568 22.9339C13.5568 19.2317 10.5556 16.2304 6.85342 16.2304C3.15122 16.2304 0.149991 19.2317 0.149992 22.9339C0.149992 26.6361 3.15122 29.6373 6.85342 29.6373C10.5556 29.6373 13.5568 26.6361 13.5568 22.9339Z" fill="white"/>
<path d="M22.7631 13.6739C26.4652 13.6739 29.4664 10.6727 29.4664 6.97061C29.4664 3.2685 26.4652 0.267352 22.7631 0.267352C19.061 0.267352 16.0598 3.2685 16.0598 6.97061C16.0598 10.6727 19.061 13.6739 22.7631 13.6739Z" fill="white"/>
<path d="M22.7634 16.2215L14.943 29.7328H30.5839L22.7634 16.2215Z" fill="white"/>
<path d="M43.6761 10.6706C47.6911 10.6706 50.9031 11.9972 50.9031 16.5708C50.9031 19.3638 49.6811 21.0047 47.6562 21.9474L51.8108 29.314H46.8183L43.3619 22.7504H41.2322V29.314H36.7983V10.6706H43.6761ZM43.2921 19.2591C45.4218 19.2591 46.539 18.3514 46.539 16.5708C46.539 14.7903 45.4218 14.2317 43.2921 14.2317H41.2672V19.2242H43.2921V19.2591Z" fill="white"/>
<path d="M59.9108 10.6706H65.2874L71.0829 29.4536H66.3697L65.2525 25.1943H59.7712L58.6539 29.4536H54.0804L59.9108 10.6706ZM60.7138 21.5983H64.4844L64.0305 20.0272C63.5767 18.107 63.0181 15.8726 62.5642 13.9873H62.4594C62.0056 16.0122 61.447 18.1419 60.9931 20.0272L60.7138 21.5983Z" fill="white"/>
<path d="M78.2399 22.6808L72.6539 10.6359H77.4718L79.0429 14.7905C79.4968 16.2569 80.0204 17.4788 80.5092 18.9452H80.614C81.1726 17.4788 81.5915 16.1521 82.1851 14.7905L83.7561 10.6359H88.4694L82.7087 22.6808V29.2444H78.2748L78.2399 22.6808Z" fill="white"/>
<path d="M90.9479 26.9404L93.5315 23.8332C94.8581 24.9504 96.5339 25.7534 97.9654 25.7534C99.6412 25.7534 100.409 25.0901 100.409 24.0776C100.409 22.9604 99.4317 22.6112 97.721 21.9479L95.3818 20.9703C93.3569 20.2023 91.6113 18.5265 91.6113 15.8382C91.6113 12.7309 94.4043 10.1474 98.4542 10.1474C100.584 10.1474 102.888 10.9155 104.494 12.5913L102.26 15.3843C101.038 14.4766 99.9205 13.918 98.4891 13.918C97.1624 13.918 96.2547 14.4766 96.2547 15.489C96.2547 16.5015 97.3719 16.9554 99.0477 17.6187L101.492 18.7359C103.831 19.6437 105.157 21.1798 105.157 23.8681C105.157 26.9753 102.574 29.6636 98.0352 29.6636C95.5564 29.7335 92.9728 28.721 90.9479 26.9404Z" fill="white"/>
<path d="M122.021 10.6706V14.4411H114.689V17.8975H120.973V21.6681H114.689V25.6831H122.3V29.4536H110.115V10.6706H122.021Z" fill="white"/>
<path d="M139.651 10.6706V14.4411H132.285V17.8975H138.569V21.6681H132.285V25.6831H139.896V29.4536H127.711V10.6706H139.651Z" fill="white"/>
<path d="M39.7652 2.25707V3.23462H41.7901V6.48151H40.8126V6.37678H37.8799V6.7259H36.8325V3.47901H38.7527V0.476514H39.7303V1.48898H42.1742V2.43163H39.7303V2.25707H39.7652ZM40.8475 4.28201H37.845V5.50396H40.8475V4.28201Z" fill="white"/>
<path d="M44.7574 2.1536C44.7574 2.60746 44.7574 3.06133 44.7574 3.48028C44.8622 4.38801 44.9669 4.94662 45.316 4.94662C45.6651 4.94662 45.8746 4.17854 45.9794 3.72467L46.7475 4.73714C46.2936 5.95909 45.8397 6.30822 45.2811 6.30822C44.513 6.30822 43.8148 5.64487 43.6053 3.86432C43.5006 3.20098 43.5005 2.53764 43.5005 2.08377C43.5005 1.87429 43.5006 1.6299 43.3958 1.42043H44.6178C44.7574 1.49025 44.7574 1.97903 44.7574 2.1536ZM49.331 4.84188L48.2138 5.29575C48.109 4.31819 47.7599 2.50272 46.9918 1.69973L47.9694 1.3506C48.7724 2.1536 49.331 3.96906 49.331 4.84188Z" fill="white"/>
<path d="M56.1391 2.15203C55.6852 2.92011 54.8124 3.93258 53.9047 4.73558C54.2538 5.0847 54.568 5.50366 54.9172 5.85279L53.9047 6.62087C53.5556 6.167 52.997 5.6084 52.578 5.15453C52.2289 4.8054 51.6005 4.14206 51.1117 3.93258L52.0194 3.26924C52.2289 3.47872 52.6827 3.82785 52.997 4.17697C53.6603 3.61837 54.1142 2.95502 54.4633 2.50116H51.2164C51.0069 2.50116 50.5531 2.50116 50.4483 2.6059V1.48869C50.6578 1.48869 51.0069 1.59343 51.2164 1.59343H54.8124C55.1616 1.59343 55.371 1.59343 55.5805 1.48869L56.3486 2.15203C56.2788 2.08221 56.1391 2.15203 56.1391 2.15203Z" fill="white"/>
<path d="M59.5257 3.9688L58.5132 4.28302C58.4085 3.96881 58.0594 3.06107 57.9547 2.71195L58.9322 2.36282C59.0719 2.81668 59.2464 3.51494 59.5257 3.9688ZM62.598 3.20072C62.3886 3.86406 62.1442 4.52741 61.6903 5.12092C61.027 5.88901 60.224 6.44761 59.4559 6.79674L58.5482 5.88901C59.2115 5.67953 60.224 5.22566 60.7826 4.56232C61.2364 4.00372 61.5507 3.09598 61.5507 2.3279L62.6679 2.64212C62.7377 2.81668 62.7377 3.06107 62.598 3.20072ZM60.9571 3.51494L59.9796 3.82915C59.8748 3.51494 59.6305 2.71194 59.421 2.36282L60.4334 2.01369C60.4684 2.39773 60.8524 3.20072 60.9571 3.51494Z" fill="white"/>
<path d="M67.2068 1.07074C67.8702 0.966006 68.5335 0.861268 68.8827 0.616878L69.546 1.52461C69.3365 1.62935 69.0921 1.62935 68.9874 1.62935C68.6383 1.73409 68.3241 1.73409 67.9749 1.83883V2.78147H69.546C69.6507 2.78147 69.9999 2.78147 70.2093 2.78147V3.75903C69.9999 3.75903 69.7555 3.75903 69.546 3.75903H67.8702C67.7655 4.7715 67.3116 5.78397 66.1944 6.44731L65.2168 5.78397C66.1944 5.3301 66.6831 4.66676 66.8926 3.75903H65.1121C64.9026 3.75903 64.6582 3.75903 64.4487 3.75903V2.78147C64.6582 2.78147 64.9026 2.78147 65.1121 2.78147H66.8926V2.01339C66.2293 2.01339 65.6707 2.11813 65.2168 2.11813L65.0073 1.2104C65.4263 1.17548 66.4039 1.17548 67.2068 1.07074Z" fill="white"/>
<path d="M73.9795 4.5267C75.2015 3.86335 76.1092 2.85088 76.5631 1.83841L77.2264 2.95562C76.6678 3.86335 75.7601 4.87583 74.6429 5.53917C73.9795 5.99304 73.0718 6.30725 72.3386 6.4469L71.6753 5.32969C72.5481 5.19004 73.3162 4.84091 73.9795 4.5267ZM74.2588 2.39702L73.4908 3.30475C73.1765 2.99053 72.2688 2.18754 71.8149 1.83841L72.583 1.07033C73.002 1.31472 73.8748 1.97806 74.2588 2.39702Z" fill="white"/>
<path d="M83.6154 1.48928L83.0568 1.69876L83.7201 2.15263C83.6154 2.25736 83.5107 2.46684 83.5107 2.71123C83.3012 3.26984 82.9521 4.17757 82.3935 4.94565C81.7301 5.71373 80.9271 6.41198 79.7052 6.86585L78.7276 5.95812C80.194 5.50425 80.8573 4.98056 81.4159 4.28231C81.8698 3.82844 82.184 3.06036 82.3236 2.60649H80.6478C80.194 3.1651 79.5306 3.7237 78.972 4.17757L78.0643 3.51422C79.2862 2.85088 79.7401 1.94315 80.0892 1.38454C80.194 1.17507 80.2987 0.825939 80.4384 0.616462L81.6603 0.96559C81.5556 1.17507 81.3112 1.41946 81.2064 1.62893H82.3236C82.5331 1.62893 82.7775 1.62893 82.8823 1.5242C82.7775 1.31472 82.5331 0.96559 82.4284 0.756114L83.0917 0.546636C83.2663 0.825938 83.5107 1.31472 83.6154 1.48928ZM84.3835 1.17507L83.7201 1.38454C83.6154 1.17507 83.371 0.721201 83.1616 0.476812L83.8249 0.267334C84.0693 0.511724 84.2788 0.930678 84.3835 1.17507Z" fill="white"/>
<path d="M90.5288 0.267334C90.9827 0.267334 91.2969 0.581549 91.2969 1.03542C91.2969 1.48928 90.9827 1.8035 90.5288 1.8035C90.5288 1.90824 90.4241 2.01297 90.4241 2.01297C90.3193 2.67632 89.9702 3.68879 89.4465 4.45687C88.8879 5.22495 87.8754 5.92321 86.7582 6.37707L85.8505 5.3646C87.1772 5.05039 87.9802 4.45687 88.434 3.79353C88.8879 3.23492 89.0974 2.57158 89.2021 2.15263H86.3044C85.9901 2.15263 85.641 2.15263 85.3966 2.15263V1.07033C85.6061 1.07033 86.06 1.17507 86.3044 1.17507H89.2021C89.3068 1.17507 89.5512 1.17507 89.656 1.17507C89.656 1.17507 89.656 1.17507 89.656 1.07033C89.6211 0.7212 90.0749 0.267334 90.5288 0.267334ZM90.5288 1.48928C90.7383 1.48928 90.843 1.38454 90.843 1.14015C90.843 0.930677 90.7383 0.791026 90.5288 0.791026C90.3193 0.791026 90.1797 0.895764 90.1797 1.14015C90.1797 1.38454 90.2844 1.48928 90.5288 1.48928Z" fill="white"/>
<path d="M97.7903 3.30403C97.5808 3.96738 97.3364 4.52598 96.8127 5.08459C96.1494 5.85267 95.2416 6.30654 94.4735 6.55092L93.7055 5.64319C94.7179 5.43371 95.486 4.97985 95.9399 4.52598C96.2541 4.17685 96.4985 3.86264 96.6032 3.54842H93.5658C93.4611 3.54842 93.0072 3.54842 92.6581 3.54842V2.53595C92.9723 2.53595 93.3214 2.53595 93.5658 2.53595H96.6731C96.8825 2.53595 97.1269 2.53595 97.2317 2.43121L97.895 2.88508C97.7903 3.05965 97.7903 3.1993 97.7903 3.30403ZM94.0197 0.929964H96.6032C96.8127 0.929964 97.1618 0.929964 97.3713 0.929964V1.94243C97.1618 1.94243 96.8127 1.94243 96.6032 1.94243H94.1593C93.9499 1.94243 93.6007 1.94243 93.3912 1.94243V0.929964C93.4611 0.929964 93.7404 0.929964 94.0197 0.929964Z" fill="white"/>
<path d="M101.247 3.9688L100.269 4.28302C100.164 3.96881 99.8151 3.06107 99.7104 2.71195L100.688 2.36282C100.793 2.81668 101.142 3.51494 101.247 3.9688ZM104.493 3.20072C104.284 3.86406 104.04 4.52741 103.586 5.12092C102.922 5.88901 102.119 6.44761 101.351 6.79674L100.444 5.88901C101.107 5.67953 102.119 5.22566 102.678 4.56232C103.132 4.00372 103.446 3.09598 103.446 2.3279L104.563 2.64212C104.598 2.81668 104.493 3.06107 104.493 3.20072ZM102.713 3.51494L101.735 3.82915C101.631 3.51494 101.386 2.71194 101.177 2.36282L102.189 2.01369C102.364 2.39773 102.608 3.20072 102.713 3.51494Z" fill="white"/>
<path d="M107.706 1.59479C107.706 1.38532 107.706 1.03619 107.601 0.687061H108.823C108.823 0.896537 108.718 1.24566 108.718 1.59479V2.50252C109.626 2.712 110.953 3.27061 111.511 3.515L111.057 4.63221C110.394 4.28308 109.486 3.96886 108.823 3.61974V5.29555C108.823 5.50502 108.823 5.95889 108.928 6.30802H107.706C107.706 5.95889 107.811 5.53994 107.811 5.29555V1.59479H107.706Z" fill="white"/>
<path d="M118.563 2.15288C118.459 2.81623 118.11 3.8287 117.586 4.59678C117.027 5.36486 116.015 6.06311 114.898 6.51698L113.99 5.53942C115.316 5.1903 116.119 4.63169 116.573 3.96835C117.027 3.40974 117.237 2.7464 117.341 2.32745H114.444C114.095 2.32745 113.78 2.32745 113.536 2.32745V1.21024C113.745 1.21024 114.199 1.31498 114.444 1.31498H117.341C117.446 1.31498 117.795 1.31498 117.9 1.21024L118.668 1.76884C118.668 1.87358 118.563 2.08306 118.563 2.15288Z" fill="white"/>
<path d="M124.115 2.53738C124.115 2.64212 124.115 2.74686 124.115 2.88651H124.778C124.987 2.88651 125.232 2.88651 125.337 2.88651V3.86407C125.127 3.86407 124.883 3.86407 124.778 3.86407H124.115C124.115 4.63215 124.115 5.43514 124.115 6.09849C124.115 6.4127 123.765 6.76183 123.346 6.76183C122.997 6.76183 122.578 6.76183 122.229 6.76183L122.125 5.8541C122.334 5.8541 122.683 5.8541 122.893 5.8541C122.997 5.8541 123.102 5.74936 123.102 5.64462C123.102 5.43514 123.102 4.98128 123.102 4.66706C122.648 5.22567 121.775 5.88901 121.077 6.34287L120.414 5.57479C121.322 5.12093 122.194 4.45758 122.648 3.89898H121.531C121.322 3.89898 121.077 3.89898 120.868 3.89898V2.88651C120.972 2.88651 121.322 2.88651 121.531 2.88651H123.207C123.207 2.78177 123.207 2.67703 123.207 2.57229C123.207 2.36282 123.207 2.11843 123.102 2.01369H124.08C124.115 2.08351 124.115 2.25808 124.115 2.53738Z" fill="white"/>
<path d="M128.374 2.95614H131.97C132.319 2.95614 132.633 2.95614 132.738 2.95614V4.17808C132.528 4.17808 132.179 4.17808 131.97 4.17808H128.374C128.025 4.17808 127.466 4.17808 127.256 4.17808V2.95614C127.466 2.95614 128.025 2.95614 128.374 2.95614Z" fill="white"/>
<path d="M137.102 1.87281C136.893 2.53615 136.439 4.00249 136.09 4.87531C136.753 4.77057 137.556 4.77057 138.219 4.66583C138.01 4.21196 137.766 3.7581 137.556 3.54862L138.534 3.09476C138.988 3.86284 139.651 5.1197 140 5.88778L138.883 6.34164C138.778 6.13217 138.673 5.88778 138.534 5.57356C137.416 5.6783 135.531 5.92269 134.763 6.02743C134.658 6.02743 134.309 6.13217 134.1 6.13217L133.89 4.91022C134.1 4.91022 134.449 4.91022 134.658 4.91022H134.763C135.112 3.93266 135.671 2.22194 135.88 1.55859C135.985 1.24438 135.985 0.999988 136.09 0.790511L137.312 0.999989C137.312 1.3142 137.207 1.48877 137.102 1.87281Z" fill="white"/>
</svg>
